HIERARCHY
ROOT RootJoint
{
    OFFSET   0.000000   0.000000   0.000000
    CHANNELS 6 Xposition Yposition Zposition Xrotation Yrotation Zrotation
    JOINT pelvis_lowerback
    {
        OFFSET   0.000000   0.093605   0.000000
        CHANNELS 3 Xrotation Yrotation Zrotation
        JOINT lowerback_torso
        {
            OFFSET   0.000000   0.100000   0.000000
            CHANNELS 3 Xrotation Yrotation Zrotation
            JOINT torso_head
            {
                OFFSET   0.000000   0.282350   0.000000
                CHANNELS 3 Xrotation Yrotation Zrotation
                End Site
                {
                    OFFSET   0.000000   0.192650   0.000000
                }
            }
            JOINT rTorso_Clavicle
            {
                OFFSET  -0.001000   0.157500   0.000000
                CHANNELS 3 Xrotation Yrotation Zrotation
                JOINT rShoulder
                {
                    OFFSET  -0.117647   0.000000   0.000000
                    CHANNELS 3 Xrotation Yrotation Zrotation
                    JOINT rElbow
                    {
                        OFFSET  -0.245000   0.000000   0.000000
                        CHANNELS 3 Xrotation Yrotation Zrotation
                        JOINT rWrist
                        {
                            OFFSET  -0.240000   0.000000   0.000000
                            CHANNELS 3 Xrotation Yrotation Zrotation
                            End Site
                            {
                                OFFSET  -0.116353  -0.002500   0.000000
                            }
                        }
                    }
                }
            }
            JOINT lTorso_Clavicle
            {
                OFFSET   0.001000   0.157500   0.000000
                CHANNELS 3 Xrotation Yrotation Zrotation
                JOINT lShoulder
                {
                    OFFSET   0.117647   0.000000   0.000000
                    CHANNELS 3 Xrotation Yrotation Zrotation
                    JOINT lElbow
                    {
                        OFFSET   0.245000   0.000000   0.000000
                        CHANNELS 3 Xrotation Yrotation Zrotation
                        JOINT lWrist
                        {
                            OFFSET   0.240000   0.000000   0.000000
                            CHANNELS 3 Xrotation Yrotation Zrotation
                            End Site
                            {
                                OFFSET   0.116353  -0.002500   0.000000
                            }
                        }
                    }
                }
            }
        }
    }
    JOINT rHip
    {
        OFFSET  -0.100000  -0.051395   0.000000
        CHANNELS 3 Xrotation Yrotation Zrotation
        JOINT rKnee
        {
            OFFSET   0.000000  -0.410000   0.000000
            CHANNELS 3 Xrotation Yrotation Zrotation
            JOINT rAnkle
            {
                OFFSET   0.000000  -0.390000   0.000000
                CHANNELS 3 Xrotation Yrotation Zrotation
                JOINT rToeJoint
                {
                    OFFSET   0.000000  -0.050000   0.130000
                    CHANNELS 3 Xrotation Yrotation Zrotation
                    End Site
                    {
                        OFFSET  -0.010000   0.002000   0.060000
                    }
                }
            }
        }
    }
    JOINT lHip
    {
        OFFSET   0.100000  -0.051395   0.000000
        CHANNELS 3 Xrotation Yrotation Zrotation
        JOINT lKnee
        {
            OFFSET   0.000000  -0.410000   0.000000
            CHANNELS 3 Xrotation Yrotation Zrotation
            JOINT lAnkle
            {
                OFFSET   0.000000  -0.390000   0.000000
                CHANNELS 3 Xrotation Yrotation Zrotation
                JOINT lToeJoint
                {
                    OFFSET   0.000000  -0.050000   0.130000
                    CHANNELS 3 Xrotation Yrotation Zrotation
                    End Site
                    {
                        OFFSET   0.010000   0.002000   0.060000
                    }
                }
            }
        }
    }
}
MOTION
Frames: 17
Frame Time:   0.008333
 -2.718681   0.850109   3.629910  30.070810  83.865829 -34.145562  15.454698  -1.316682  -2.249196  -7.737561  -2.548162   1.721120  -1.670441  -0.498842   0.987841  -6.839672  -4.123157 -11.933661 -16.130615   1.616195   2.737893  -0.000963  19.141341  -0.000327   0.486614   3.796851   0.669361  -8.801930   1.883920  15.051678 -22.118158  -1.760029  -0.371328   0.000418 -17.851412  -0.001149  -1.543044  -3.025377   4.509290 -34.252780 -14.408901 -13.939823  50.205012   0.000249   0.000083  -3.247333 -15.380438   5.227329 -19.438765  -0.000634  -0.001356 -28.279906  14.847635  12.302438  51.504187   0.000027   0.000049 -29.146173  15.241160   6.993943   1.270163  -0.000048  -0.000533
 -2.717205   0.850185   3.629727  28.833940  83.898611 -32.898304  15.359339  -1.405241  -2.275243  -7.676888  -2.570948   1.731754  -1.595758  -0.517386   0.965177  -6.763805  -4.212469 -11.774849 -15.978565   1.485970   2.777920  -0.000994  18.974669  -0.000116   0.464619   3.778306   0.622389  -8.769572   1.941167  14.935446 -22.034410  -1.778305  -0.385561   0.000581 -18.058353  -0.001053  -1.576989  -2.989686   4.564045 -34.005264 -14.362365 -13.959233  50.195168   0.000194   0.000069  -3.348903 -15.343128   5.288968 -19.410532  -0.000510  -0.001082 -27.972064  14.824227  12.237200  51.455012   0.000051   0.000077 -29.235498  15.334477   6.935893   1.201802  -0.000060  -0.000416
 -2.715692   0.850320   3.629592  27.720132  83.939148 -31.779828  15.247003  -1.496724  -2.298608  -7.622907  -2.602707   1.743616  -1.523218  -0.534331   0.942557  -6.691814  -4.307285 -11.618567 -15.833606   1.354417   2.821948  -0.000992  18.815051   0.000004   0.447554   3.744629   0.603646  -8.735902   1.994138  14.821936 -21.953686  -1.796263  -0.405976   0.000696 -18.253736  -0.001003  -1.604826  -2.976822   4.588818 -33.750158 -14.317069 -13.971631  50.174233   0.000143   0.000057  -3.434578 -15.303025   5.344682 -19.410719  -0.000408  -0.000865 -27.665725  14.799123  12.177216  51.387654   0.000077   0.000103 -29.316940  15.417022   6.887022   1.147879  -0.000059  -0.000327
 -2.714170   0.850476   3.629490  26.695566  83.975074 -30.753102  15.124687  -1.587092  -2.321458  -7.583359  -2.638952   1.754401  -1.456469  -0.550041   0.921020  -6.625564  -4.403008 -11.469083 -15.697708   1.225724   2.865214  -0.000954  18.663703   0.000053   0.431380   3.699227   0.595773  -8.703911   2.043892  14.714073 -21.877831  -1.812460  -0.427085   0.000757 -18.435960  -0.000987  -1.631264  -2.967250   4.601501 -33.502809 -14.270647 -13.978727  50.151775   0.000100   0.000047  -3.508027 -15.261585   5.395332 -19.432195  -0.000328  -0.000701 -27.366998  14.767890  12.120869  51.312198   0.000105   0.000128 -29.394701  15.485356   6.842579   1.105355  -0.000054  -0.000253
 -2.712657   0.850637   3.629413  25.718845  84.001145 -29.775515  14.996710  -1.674071  -2.344563  -7.556641  -2.676387   1.763282  -1.395487  -0.564680   0.900677  -6.564757  -4.497240 -11.328775 -15.570764   1.101934   2.905767  -0.000889  18.520975   0.000059   0.415770   3.647120   0.590370  -8.674259   2.091745  14.613045 -21.806893  -1.826492  -0.446960   0.000775 -18.605583  -0.000987  -1.656902  -2.956246   4.610620 -33.267409 -14.224825 -13.981588  50.130853   0.000068   0.000038  -3.573350 -15.220417   5.442091 -19.466163  -0.000265  -0.000575 -27.076622  14.731849  12.068095  51.233958   0.000133   0.000152 -29.471381  15.541915   6.801994   1.072112  -0.000046  -0.000190
 -2.711164   0.850794   3.629355  24.765587  84.014643 -28.822068  14.866014  -1.756394  -2.368220  -7.540409  -2.713027   1.769986  -1.339686  -0.578343   0.881548  -6.508938  -4.588548 -11.198517 -15.452395   0.984140   2.942850  -0.000806  18.386872   0.000039   0.400675   3.591917   0.583987  -8.647099   2.138345  14.519131 -21.740683  -1.838329  -0.464856   0.000763 -18.763386  -0.000992  -1.681826  -2.942967   4.619642 -33.045642 -14.180848 -13.980858  50.112488   0.000045   0.000032  -3.632954 -15.180464   5.485679 -19.506593  -0.000216  -0.000473 -26.794685  14.692302  12.018805  51.155725   0.000160   0.000177 -29.548127  15.588809   6.765066   1.046447  -0.000038  -0.000138
 -2.709704   0.850942   3.629310  23.824302  84.014261 -27.880918  14.734738  -1.833462  -2.392498  -7.532600  -2.747764   1.774507  -1.288507  -0.591106   0.863610  -6.457651  -4.676055 -11.078345 -15.342126   0.872865   2.976306  -0.000713  18.261196   0.000008   0.386071   3.535983   0.575304  -8.622374   2.183917  14.432172 -21.678944  -1.848107  -0.480571   0.000730 -18.910169  -0.000994  -1.706043  -2.927494   4.629929 -32.838173 -14.139348 -13.976985  50.096829   0.000029   0.000028  -3.688221 -15.142177   5.526564 -19.549432  -0.000177  -0.000388 -26.521248  14.650186  11.972800  51.078966   0.000186   0.000201 -29.625269  15.627571   6.731564   1.026957  -0.000030  -0.000097
 -2.708177   0.851161   3.629277  22.480476  83.953487 -26.521884  14.563317  -1.864735  -2.451740  -7.490403  -2.747151   1.773938  -1.231019  -0.601784   0.854603  -6.368900  -4.751251 -10.976976 -15.141237   0.729909   3.064049  -0.000708  18.149190   0.000095   0.380011   3.482852   0.477497  -8.558826   2.234010  14.358497 -21.601065  -1.852890  -0.575414   0.000874 -19.100995  -0.000976  -1.721538  -2.893451   4.722142 -32.607367 -14.042952 -13.962888  50.057971   0.000006   0.000036  -3.733899 -15.045938   5.582970 -19.597006  -0.000134  -0.000334 -26.176407  14.564525  11.907803  50.962669   0.000323   0.000347 -29.692261  15.601062   6.647007   1.006907  -0.000027  -0.000030
 -2.706601   0.851315   3.629286  21.268077  83.921555 -25.324329  14.381821  -1.905253  -2.480365  -7.453484  -2.755308   1.782726  -1.177386  -0.611442   0.846979  -6.282853  -4.821611 -10.876243 -14.950758   0.594641   3.154870  -0.000696  18.042947   0.000125   0.377827   3.423740   0.409982  -8.493121   2.272362  14.275311 -21.525186  -1.861006  -0.680676   0.000982 -19.281744  -0.000988  -1.733852  -2.876438   4.774858 -32.362319 -13.972069 -13.933127  50.031350  -0.000010   0.000034  -3.787340 -14.947446   5.641189 -19.660684  -0.000099  -0.000311 -25.854225  14.560017  11.887608  50.845211   0.000349   0.000363 -29.548340  15.678856   6.553054  -0.209414   0.000026   0.000639
 -2.705098   0.851524   3.629290  19.991713  83.826449 -24.034769  14.199366  -1.924659  -2.543071  -7.436603  -2.749164   1.778992  -1.131648  -0.619685   0.840208  -6.200481  -4.881547 -10.764120 -14.771853   0.470394   3.252441  -0.000679  17.945047   0.000130   0.375290   3.371790   0.362496  -8.432131   2.312278  14.187029 -21.453797  -1.864336  -0.783929   0.001065 -19.449391  -0.001004  -1.745826  -2.860657   4.815634 -32.156305 -13.879525 -13.911321  49.997048  -0.000017   0.000044  -3.824228 -14.848925   5.691913 -19.716695  -0.000070  -0.000266 -25.513677  14.450591  11.824543  50.733942   0.000476   0.000503 -29.670062  15.618217   6.487173   0.020641   0.000041  -0.000178
 -2.703661   0.851749   3.629299  18.682245  83.687726 -22.708335  14.020072  -1.932715  -2.608900  -7.428541  -2.732609   1.768211  -1.090821  -0.627243   0.832605  -6.122041  -4.931723 -10.653147 -14.604211   0.357654   3.349936  -0.000650  17.854607   0.000123   0.372510   3.326744   0.331027  -8.375697   2.354789  14.097126 -21.386500  -1.861903  -0.884471   0.001114 -19.603777  -0.001011  -1.758381  -2.836066   4.845587 -31.970459 -13.785865 -13.882366  49.955014  -0.000016   0.000068  -3.860039 -14.748157   5.736982 -19.729802  -0.000053  -0.000213 -25.177023  14.330821  11.760389  50.622923   0.000605   0.000656 -29.764947  15.548360   6.420229   0.179017   0.000028  -0.000703
 -2.702292   0.851964   3.629324  17.408293  83.524527 -21.416512  13.845968  -1.937485  -2.674269  -7.425753  -2.712864   1.754443  -1.053587  -0.634437   0.825281  -6.048211  -4.975883 -10.547345 -14.447423   0.254306   3.443738  -0.000609  17.770783   0.000110   0.369695   3.287051   0.308582  -8.323193   2.397394  14.009086 -21.323242  -1.856450  -0.980730   0.001131 -19.746474  -0.001008  -1.771314  -2.804176   4.868033 -31.798542 -13.697711 -13.849016  49.908098  -0.000008   0.000098  -3.887183 -14.648104   5.779220 -19.784029  -0.000026  -0.000160 -24.852109  14.216162  11.700507  50.517170   0.000704   0.000777 -29.845465  15.483679   6.356754   0.289698   0.000011  -0.000964
 -2.700995   0.852166   3.629371  16.225338  83.353128 -20.218672  13.679054  -1.944236  -2.734696  -7.426596  -2.695462   1.740651  -1.019493  -0.641360   0.818546  -5.979410  -5.017200 -10.447769 -14.300965   0.158024   3.532186  -0.000559  17.692589   0.000093   0.366897   3.250076   0.289420  -8.273937   2.437756  13.923900 -21.263890  -1.850231  -1.072504   0.001125 -19.879112  -0.000993  -1.784248  -2.769363   4.885750 -31.637426 -13.607099 -13.810830  49.864238  -0.000002   0.000119  -3.918173 -14.542516   5.815888 -19.808519  -0.000013  -0.000125 -24.543872  14.106704  11.648012  50.417347   0.000766   0.000857 -29.916032  15.425006   6.297470   0.367935  -0.000002  -0.001048
 -2.699779   0.852137   3.629455  15.012079  83.151778 -19.004082  13.490378  -1.925864  -2.790474  -7.416907  -2.653876   1.722151  -0.991305  -0.683591   0.812360  -5.905212  -5.028344 -10.391911 -14.103215   0.009977   3.704590  -0.000540  17.629769   0.000099   0.364508   3.198959   0.162687  -8.193209   2.449357  13.838535 -21.238407  -1.835800  -1.193341   0.001316 -20.095162  -0.001132  -1.798150  -2.695683   4.962419 -31.543566 -13.452419 -13.762418  49.945298   0.000003   0.000033  -3.893723 -14.397207   5.888915 -19.940039   0.000043  -0.000138 -24.347074  13.947141  11.650897  50.522106   0.000362   0.000414 -29.879837  15.303300   6.169610   0.138877   0.000039   0.000226
 -2.698562   0.851977   3.629544  13.627595  82.937309 -17.619734  13.313907  -1.902626  -2.848320  -7.408053  -2.609516   1.702565  -0.966975  -0.723404   0.805224  -5.831680  -5.027935 -10.318211 -13.915998  -0.123983   3.883837  -0.000524  17.572268   0.000089   0.363475   3.152316   0.060282  -8.113371   2.451143  13.741668 -21.213093  -1.827765  -1.319501   0.001480 -20.301969  -0.001265  -1.808962  -2.657732   5.025391 -31.453184 -13.300080 -13.719409  50.071035  -0.000006  -0.000093  -3.874093 -14.249763   5.958843 -20.136552   0.000109  -0.000127 -24.154511  13.791896  11.665348  50.690264  -0.000123  -0.000113 -29.842766  15.184429   6.047432  -0.159362   0.000113   0.001588
 -2.697349   0.851730   3.629630  12.213934  82.709172 -16.205301  13.142126  -1.878859  -2.906880  -7.404948  -2.565949   1.682542  -0.946170  -0.760512   0.797885  -5.760769  -5.021228 -10.232235 -13.739706  -0.245959   4.064295  -0.000506  17.519863   0.000068   0.362412   3.114870  -0.016197  -8.036076   2.448653  13.636794 -21.188085  -1.820842  -1.447791   0.001598 -20.495935  -0.001382  -1.818597  -2.632223   5.068502 -31.365674 -13.157999 -13.680044  50.212713  -0.000035  -0.000235  -3.861818 -14.110902   6.024516 -20.403342   0.000188  -0.000049 -23.961925  13.646610  11.682220  50.884643  -0.000576  -0.000607 -29.818269  15.074702   5.934490  -0.476370   0.000185   0.002748
 -2.696162   0.851445   3.629700  10.836411  82.467709 -14.830010  12.975903  -1.855268  -2.960639  -7.408470  -2.523995   1.664122  -0.928859  -0.795177   0.790796  -5.693282  -5.011639 -10.138550 -13.573982  -0.358527   4.242523  -0.000485  17.471488   0.000044   0.361177   3.083576  -0.073609  -7.962197   2.445011  13.525810 -21.163597  -1.812814  -1.576275   0.001669 -20.676834  -0.001470  -1.827996  -2.609360   5.095588 -31.286106 -13.023227 -13.640374  50.366153  -0.000077  -0.000382  -3.876174 -13.979619   6.085097 -20.557471   0.000212   0.000024 -23.770958  13.510501  11.702261  51.088011  -0.000958  -0.001027 -29.802354  14.974395   5.830189  -0.799537   0.000245   0.003678
